<?xml version="1.0" encoding="utf-8"?>
<!-- Generator: Adobe Illustrator 19.0.0, SVG Export Plug-In . SVG Version: 6.00 Build 0)  -->
<svg version="1.1" id="Camada_1" xmlns="http://www.w3.org/2000/svg" xmlns:xlink="http://www.w3.org/1999/xlink" x="0px" y="0px"
	 viewBox="0 0 560 446" style="enable-background:new 0 0 560 446;" xml:space="preserve">
<style type="text/css">
	.st0{fill:#FFFFFF;}
</style>
<rect x="-5" y="-10" width="581" height="465"/>
<g id="XMLID_1_">
	<path id="XMLID_71_" class="st0" d="M247.8,195.2v4.3c0,47.5-24.3,89.8-76.6,89.8c-49.1,0-80.2-41.5-80.2-88
		c0-48,31.9-89.3,82.2-89.3c28.6,0,53.6,14.5,66.6,40.2l-29,15.6c-6.7-15.2-21-26.8-38.4-26.8c-31.7,0-47.3,32.4-47.3,60.3
		c0,27.9,15.8,59,47.5,59c20.6,0,37.8-17.9,38.4-38.2h-35.8v-26.8L247.8,195.2L247.8,195.2z"/>
	<path id="XMLID_68_" class="st0" d="M334.1,224.7l-22.6,55.4h-10.9l70.5-173.9l70.3,173.9h-10.9l-22.5-55.4H334.1z M371.3,133.4
		l-33.1,81.3H404L371.3,133.4z"/>
	<g id="XMLID_30_">
		<path id="XMLID_66_" class="st0" d="M106.9,329.2v0.5c0,5.4-2.8,10.1-8.7,10.1c-5.5,0-9.1-4.7-9.1-9.9c0-5.5,3.6-10.1,9.3-10.1
			c3.3,0,6.1,1.6,7.5,4.5l-3.3,1.8c-0.8-1.7-2.3-3.1-4.3-3.1c-3.6,0-5.4,3.7-5.4,6.8c0,3.2,1.8,6.7,5.4,6.7c2.3,0,4.3-2.1,4.3-4.3
			h-4v-3.1L106.9,329.2L106.9,329.2z"/>
		<path id="XMLID_63_" class="st0" d="M139.4,339.4h-4.5l-4.6-7.7h-0.1v7.7h-3.7v-19.1h5c3.8,0,6.4,1.7,6.4,5.7
			c0,2.4-1.3,4.8-3.9,5.3L139.4,339.4z M130.1,329.1h0.5c2.1,0,3.5-0.6,3.5-2.9c0-2.3-1.5-2.8-3.5-2.8h-0.5V329.1z"/>
		<path id="XMLID_61_" class="st0" d="M158.2,320.3h3.7v10.6c0,2.3,0.2,5.7,3.3,5.7c3.2,0,3.3-3.3,3.3-5.7v-10.6h3.7v11.4
			c0,4.7-2,8.2-7.1,8.2s-7.1-3.5-7.1-8.2v-11.4H158.2z"/>
		<path id="XMLID_58_" class="st0" d="M196.4,339.4h-3.7v-19.1h5c4,0,6.6,1.6,6.6,5.9c0,4-2.2,6-6.1,6h-1.8V339.4z M196.4,329.2h0.8
			c2.2,0,3.4-0.5,3.4-3s-1.4-2.8-3.5-2.8h-0.6L196.4,329.2L196.4,329.2z"/>
		<path id="XMLID_55_" class="st0" d="M222.9,329.8c0-5.3,3.9-10,9.4-10s9.4,4.7,9.4,10c0,5.5-3.8,10.1-9.4,10.1
			C226.8,339.9,222.9,335.3,222.9,329.8z M226.7,329.7c0,2.9,2.4,6.5,5.6,6.5c3.1,0,5.6-3.7,5.6-6.5c0-3.1-2.3-6.2-5.6-6.2
			C229,323.5,226.7,326.6,226.7,329.7z"/>
		<path id="XMLID_52_" class="st0" d="M277.3,331.9l-3.1,7.5h-1.5l9.6-23.6l9.6,23.6h-1.5l-3.1-7.5H277.3z M282.3,319.5l-4.5,11h8.9
			L282.3,319.5z"/>
		<path id="XMLID_50_" class="st0" d="M302,338h5.8v1.3h-7.2v-22.8h1.5L302,338L302,338z"/>
		<path id="XMLID_48_" class="st0" d="M338,328.5c0.1,2.9-0.4,5.4-2.4,7.6c-2.2,2.3-5.5,3.7-8.7,3.7c-6.3,0-11.7-5.3-11.7-11.6
			c0-6.5,5.4-11.8,11.9-11.8c4.2,0,7.5,2.1,9.9,5.3l-1.2,0.9c-2.1-3.1-5.1-4.9-8.8-4.9c-5.6,0-10.4,4.9-10.4,10.4
			c0,5.6,4.7,10.4,10.4,10.4c2.5,0,4.8-1,6.7-2.6c2-1.6,2.7-3.5,2.8-6h-8.2v-1.3H338L338,328.5z"/>
		<path id="XMLID_45_" class="st0" d="M355.3,309.5l-3.8,4.4l-1.1-0.5l3.1-4.5L355.3,309.5z M349,317.9v8.3h9.2v1.3H349V338h9.4v1.3
			h-10.9v-22.8h10.9v1.3L349,317.9L349,317.9z"/>
		<path id="XMLID_41_" class="st0" d="M369.1,339.4v-22.8h4.6c1.7,0,3.3,0.1,4.8,1.3s1.9,2.9,1.9,4.7c0,2.1-0.9,3.6-2.6,4.7
			c2.8,0.6,4.8,2.8,4.8,5.7c0,1.8-0.7,3.5-2.1,4.8c-1.6,1.3-3.3,1.6-5.3,1.6H369.1z M370.5,338h3.5c1.6,0,3.3,0.1,4.7-0.9
			c1.4-0.9,2.3-2.3,2.3-4c0-1.6-0.9-3.3-2.3-4.1c-1.4-0.7-3.3-0.7-4.8-0.7h-3.3V338z M370.5,327h2.6c1.6,0,2.8,0.1,4.1-0.9
			c1.3-0.9,1.7-2.1,1.7-3.7c0-1.5-0.6-2.9-1.8-3.8c-1.1-0.7-2.6-0.7-3.9-0.7h-2.6V327z"/>
		<path id="XMLID_38_" class="st0" d="M403.5,339.4h-1.6l-7.5-10.8h-0.7v10.8h-1.5v-22.8h2.8c1.8,0,3.7,0,5.2,1.1
			c1.6,1.1,2.3,3,2.3,4.9c0,4-2.8,6-6.5,6L403.5,339.4z M395.5,327.2c1.4,0,2.8-0.1,4-1.1c1.1-0.9,1.6-2.3,1.6-3.6
			c0-1.7-0.8-3.4-2.4-4.1c-1.2-0.6-2.8-0.5-4.1-0.5h-0.9v9.3H395.5z"/>
		<path id="XMLID_36_" class="st0" d="M414.5,339.4h-1.5v-22.8h1.5V339.4z"/>
		<path id="XMLID_34_" class="st0" d="M443.7,321.2c-1.8-2.1-4.8-3.6-7.7-3.6c-5.7,0-10.4,4.9-10.4,10.5c0,2.7,1.1,5.2,3.1,7.1
			c1.9,1.8,4.6,3.1,7.3,3.1c2.6,0,6-1.4,7.7-3.5v2c-2.1,1.8-4.8,2.8-7.6,2.8c-6.4,0-11.9-5.3-11.9-11.7c0-6.5,5.5-11.8,11.9-11.8
			c2.8,0,5.5,1.1,7.6,3V321.2z"/>
		<path id="XMLID_31_" class="st0" d="M456.3,331.9l-3.1,7.5h-1.5l9.6-23.6l9.6,23.6h-1.5l-3.1-7.5H456.3z M461.3,319.5l-4.5,11h8.9
			L461.3,319.5z"/>
	</g>
</g>
</svg>
